<svg width="588" height="372" viewBox="0 0 588 372" fill="none" xmlns="http://www.w3.org/2000/svg">
<g clip-path="url(#clip0_2_237)">
<path d="M188.827 128.734L178.853 174.361L222.419 188.553L216.013 128.734H188.827Z" fill="#FFB6B6"/>
<path d="M496.26 370.88H516.002V280.357C515.976 256.995 506.685 234.598 490.169 218.078C473.652 201.559 451.258 192.267 427.9 192.241H244.423C221.065 192.267 198.672 201.559 182.155 218.078C165.639 234.598 156.348 256.995 156.322 280.357V370.88H176.064V309.037C176.09 285.458 185.467 262.853 202.137 246.18C218.808 229.507 241.41 220.128 264.985 220.102H407.339C430.914 220.128 453.516 229.507 470.186 246.18C486.857 262.853 496.234 285.458 496.26 309.037V370.88Z" fill="#E6E6E6"/>
<path d="M256.36 323.523L235.319 317.152C233.951 311.528 233.261 305.761 233.264 299.974C233.274 298.666 233.656 297.389 234.365 296.291C235.075 295.193 236.082 294.32 237.269 293.774C238.457 293.227 239.775 293.031 241.07 293.206C242.365 293.382 243.584 293.923 244.583 294.766C255.868 304.447 272.397 309.613 283.064 320.644C287.479 325.281 290.794 330.851 292.764 336.943C294.734 343.035 295.308 349.492 294.443 355.836L299.048 370.735C288.741 369.991 278.718 367.02 269.668 362.029C260.619 357.037 252.76 350.143 246.631 341.821C243.239 337.118 240.453 332.007 238.338 326.608C247.262 325.595 256.36 323.523 256.36 323.523Z" fill="#F2F2F2"/>
<path d="M311.196 347.92L321.927 344.671C321.941 344.614 321.955 344.557 321.969 344.5C322.266 343.187 322.172 341.816 321.698 340.556C321.225 339.296 320.393 338.202 319.306 337.41C318.218 336.617 316.922 336.16 315.577 336.096C314.233 336.032 312.9 336.363 311.741 337.048C306.87 339.942 301.461 342.435 297.576 346.452C295.324 348.817 293.633 351.658 292.629 354.765C291.624 357.872 291.331 361.166 291.772 364.401L289.423 372C294.68 371.621 299.793 370.106 304.408 367.56C309.024 365.014 313.032 361.498 316.158 357.253C317.888 354.854 319.309 352.247 320.388 349.494C315.836 348.977 311.196 347.92 311.196 347.92Z" fill="#F2F2F2"/>
<path d="M398.065 125.482H356.275C355.684 125.483 355.117 125.718 354.699 126.137C354.282 126.556 354.048 127.123 354.048 127.714V193.74H400.297V127.714C400.297 127.421 400.239 127.131 400.127 126.86C400.015 126.589 399.85 126.343 399.643 126.135C399.436 125.928 399.19 125.764 398.919 125.652C398.648 125.539 398.358 125.482 398.065 125.482V125.482ZM377.31 162.997C376.003 162.991 374.752 162.469 373.828 161.545C372.903 160.621 372.382 159.369 372.376 158.062V150.446C372.377 149.138 372.898 147.885 373.823 146.96C374.748 146.036 376.003 145.517 377.31 145.517C378.618 145.517 379.872 146.036 380.797 146.96C381.723 147.885 382.243 149.138 382.245 150.446V158.062C382.239 159.369 381.717 160.621 380.793 161.545C379.869 162.469 378.617 162.991 377.31 162.997V162.997Z" fill="#3F3D56"/>
<path d="M467.265 22.4409H288.63C287.095 22.4433 285.624 23.0542 284.538 24.1396C283.453 25.225 282.842 26.6964 282.84 28.2314V148.794C282.841 150.33 283.452 151.802 284.537 152.887C285.623 153.973 287.095 154.583 288.63 154.585H467.265C468.8 154.583 470.271 153.973 471.357 152.887C472.442 151.802 473.053 150.33 473.054 148.794V28.2314C473.052 26.6964 472.441 25.225 471.356 24.1396C470.271 23.0542 468.799 22.4433 467.265 22.4409V22.4409Z" fill="#3F3D56"/>
<path d="M465.774 26.6233H290.122C289.3 26.6251 288.513 26.9528 287.932 27.5346C287.352 28.1163 287.026 28.9046 287.026 29.7265V147.301C287.027 148.122 287.354 148.909 287.934 149.489C288.515 150.07 289.301 150.396 290.122 150.398H465.774C466.594 150.396 467.381 150.07 467.961 149.489C468.542 148.909 468.868 148.122 468.87 147.301V29.7265C468.87 28.9046 468.544 28.1163 467.963 27.5346C467.383 26.9528 466.595 26.6251 465.774 26.6233V26.6233Z" fill="white"/>
<path d="M353.905 191.628V197.999C353.906 198.329 354.037 198.645 354.27 198.879C354.504 199.112 354.82 199.243 355.15 199.244H399.195C399.525 199.242 399.84 199.111 400.074 198.877C400.307 198.644 400.438 198.328 400.44 197.999V191.628H353.905Z" fill="#3F3D56"/>
<path d="M431.56 201.461H327.057C326.77 201.461 326.488 201.397 326.23 201.274C325.972 201.151 325.744 200.972 325.564 200.749C325.384 200.527 325.255 200.268 325.188 199.99C325.121 199.711 325.116 199.422 325.175 199.142L326.797 191.439C326.889 191.008 327.126 190.622 327.468 190.344C327.81 190.067 328.237 189.914 328.678 189.913H429.938C430.379 189.914 430.806 190.067 431.148 190.344C431.49 190.622 431.727 191.008 431.819 191.439L433.441 199.142C433.5 199.422 433.495 199.711 433.428 199.99C433.361 200.268 433.233 200.527 433.052 200.749C432.872 200.972 432.645 201.151 432.386 201.274C432.128 201.397 431.846 201.461 431.56 201.461V201.461Z" fill="#3F3D56"/>
<path d="M332.238 191.3H329.82C329.599 191.3 329.42 191.479 329.42 191.7V192.831C329.42 193.052 329.599 193.231 329.82 193.231H332.238C332.459 193.231 332.638 193.052 332.638 192.831V191.7C332.638 191.479 332.459 191.3 332.238 191.3Z" fill="#E6E6E6"/>
<path d="M338.676 191.3H336.257C336.036 191.3 335.857 191.479 335.857 191.7V192.831C335.857 193.052 336.036 193.231 336.257 193.231H338.676C338.897 193.231 339.076 193.052 339.076 192.831V191.7C339.076 191.479 338.897 191.3 338.676 191.3Z" fill="#E6E6E6"/>
<path d="M345.113 191.3H342.694C342.473 191.3 342.294 191.479 342.294 191.7V192.831C342.294 193.052 342.473 193.231 342.694 193.231H345.113C345.334 193.231 345.513 193.052 345.513 192.831V191.7C345.513 191.479 345.334 191.3 345.113 191.3Z" fill="#E6E6E6"/>
<path d="M351.55 191.3H349.131C348.911 191.3 348.731 191.479 348.731 191.7V192.831C348.731 193.052 348.911 193.231 349.131 193.231H351.55C351.771 193.231 351.95 193.052 351.95 192.831V191.7C351.95 191.479 351.771 191.3 351.55 191.3Z" fill="#E6E6E6"/>
<path d="M357.987 191.3H355.569C355.348 191.3 355.169 191.479 355.169 191.7V192.831C355.169 193.052 355.348 193.231 355.569 193.231H357.987C358.208 193.231 358.387 193.052 358.387 192.831V191.7C358.387 191.479 358.208 191.3 357.987 191.3Z" fill="#E6E6E6"/>
<path d="M364.424 191.3H362.006C361.785 191.3 361.606 191.479 361.606 191.7V192.831C361.606 193.052 361.785 193.231 362.006 193.231H364.424C364.645 193.231 364.824 193.052 364.824 192.831V191.7C364.824 191.479 364.645 191.3 364.424 191.3Z" fill="#E6E6E6"/>
<path d="M370.862 191.3H368.443C368.222 191.3 368.043 191.479 368.043 191.7V192.831C368.043 193.052 368.222 193.231 368.443 193.231H370.862C371.082 193.231 371.262 193.052 371.262 192.831V191.7C371.262 191.479 371.082 191.3 370.862 191.3Z" fill="#E6E6E6"/>
<path d="M377.299 191.3H374.88C374.659 191.3 374.48 191.479 374.48 191.7V192.831C374.48 193.052 374.659 193.231 374.88 193.231H377.299C377.52 193.231 377.699 193.052 377.699 192.831V191.7C377.699 191.479 377.52 191.3 377.299 191.3Z" fill="#E6E6E6"/>
<path d="M383.736 191.3H381.317C381.096 191.3 380.917 191.479 380.917 191.7V192.831C380.917 193.052 381.096 193.231 381.317 193.231H383.736C383.957 193.231 384.136 193.052 384.136 192.831V191.7C384.136 191.479 383.957 191.3 383.736 191.3Z" fill="#E6E6E6"/>
<path d="M390.173 191.3H387.755C387.534 191.3 387.355 191.479 387.355 191.7V192.831C387.355 193.052 387.534 193.231 387.755 193.231H390.173C390.394 193.231 390.573 193.052 390.573 192.831V191.7C390.573 191.479 390.394 191.3 390.173 191.3Z" fill="#E6E6E6"/>
<path d="M396.61 191.3H394.192C393.971 191.3 393.792 191.479 393.792 191.7V192.831C393.792 193.052 393.971 193.231 394.192 193.231H396.61C396.831 193.231 397.01 193.052 397.01 192.831V191.7C397.01 191.479 396.831 191.3 396.61 191.3Z" fill="#E6E6E6"/>
<path d="M403.048 191.3H400.629C400.408 191.3 400.229 191.479 400.229 191.7V192.831C400.229 193.052 400.408 193.231 400.629 193.231H403.048C403.268 193.231 403.447 193.052 403.447 192.831V191.7C403.447 191.479 403.268 191.3 403.048 191.3Z" fill="#E6E6E6"/>
<path d="M409.485 191.3H407.066C406.845 191.3 406.666 191.479 406.666 191.7V192.831C406.666 193.052 406.845 193.231 407.066 193.231H409.485C409.706 193.231 409.885 193.052 409.885 192.831V191.7C409.885 191.479 409.706 191.3 409.485 191.3Z" fill="#E6E6E6"/>
<path d="M415.922 191.3H413.503C413.282 191.3 413.103 191.479 413.103 191.7V192.831C413.103 193.052 413.282 193.231 413.503 193.231H415.922C416.143 193.231 416.322 193.052 416.322 192.831V191.7C416.322 191.479 416.143 191.3 415.922 191.3Z" fill="#E6E6E6"/>
<path d="M422.359 191.3H419.94C419.72 191.3 419.541 191.479 419.541 191.7V192.831C419.541 193.052 419.72 193.231 419.94 193.231H422.359C422.58 193.231 422.759 193.052 422.759 192.831V191.7C422.759 191.479 422.58 191.3 422.359 191.3Z" fill="#E6E6E6"/>
<path d="M428.796 191.3H426.378C426.157 191.3 425.978 191.479 425.978 191.7V192.831C425.978 193.052 426.157 193.231 426.378 193.231H428.796C429.017 193.231 429.196 193.052 429.196 192.831V191.7C429.196 191.479 429.017 191.3 428.796 191.3Z" fill="#E6E6E6"/>
<path d="M332.162 194.519H329.744C329.523 194.519 329.344 194.698 329.344 194.919V196.05C329.344 196.271 329.523 196.45 329.744 196.45H332.162C332.383 196.45 332.562 196.271 332.562 196.05V194.919C332.562 194.698 332.383 194.519 332.162 194.519Z" fill="#E6E6E6"/>
<path d="M338.6 194.519H336.181C335.96 194.519 335.781 194.698 335.781 194.919V196.05C335.781 196.271 335.96 196.45 336.181 196.45H338.6C338.821 196.45 339 196.271 339 196.05V194.919C339 194.698 338.821 194.519 338.6 194.519Z" fill="#E6E6E6"/>
<path d="M345.037 194.519H342.618C342.397 194.519 342.218 194.698 342.218 194.919V196.05C342.218 196.271 342.397 196.45 342.618 196.45H345.037C345.258 196.45 345.437 196.271 345.437 196.05V194.919C345.437 194.698 345.258 194.519 345.037 194.519Z" fill="#E6E6E6"/>
<path d="M351.474 194.519H349.055C348.834 194.519 348.655 194.698 348.655 194.919V196.05C348.655 196.271 348.834 196.45 349.055 196.45H351.474C351.695 196.45 351.874 196.271 351.874 196.05V194.919C351.874 194.698 351.695 194.519 351.474 194.519Z" fill="#E6E6E6"/>
<path d="M357.911 194.519H355.493C355.272 194.519 355.093 194.698 355.093 194.919V196.05C355.093 196.271 355.272 196.45 355.493 196.45H357.911C358.132 196.45 358.311 196.271 358.311 196.05V194.919C358.311 194.698 358.132 194.519 357.911 194.519Z" fill="#E6E6E6"/>
<path d="M364.348 194.519H361.93C361.709 194.519 361.53 194.698 361.53 194.919V196.05C361.53 196.271 361.709 196.45 361.93 196.45H364.348C364.569 196.45 364.748 196.271 364.748 196.05V194.919C364.748 194.698 364.569 194.519 364.348 194.519Z" fill="#E6E6E6"/>
<path d="M370.786 194.519H368.367C368.146 194.519 367.967 194.698 367.967 194.919V196.05C367.967 196.271 368.146 196.45 368.367 196.45H370.786C371.006 196.45 371.186 196.271 371.186 196.05V194.919C371.186 194.698 371.006 194.519 370.786 194.519Z" fill="#E6E6E6"/>
<path d="M377.223 194.519H374.804C374.583 194.519 374.404 194.698 374.404 194.919V196.05C374.404 196.271 374.583 196.45 374.804 196.45H377.223C377.444 196.45 377.623 196.271 377.623 196.05V194.919C377.623 194.698 377.444 194.519 377.223 194.519Z" fill="#E6E6E6"/>
<path d="M383.66 194.519H381.241C381.02 194.519 380.841 194.698 380.841 194.919V196.05C380.841 196.271 381.02 196.45 381.241 196.45H383.66C383.881 196.45 384.06 196.271 384.06 196.05V194.919C384.06 194.698 383.881 194.519 383.66 194.519Z" fill="#E6E6E6"/>
<path d="M390.097 194.519H387.678C387.458 194.519 387.279 194.698 387.279 194.919V196.05C387.279 196.271 387.458 196.45 387.678 196.45H390.097C390.318 196.45 390.497 196.271 390.497 196.05V194.919C390.497 194.698 390.318 194.519 390.097 194.519Z" fill="#E6E6E6"/>
<path d="M396.534 194.519H394.116C393.895 194.519 393.716 194.698 393.716 194.919V196.05C393.716 196.271 393.895 196.45 394.116 196.45H396.534C396.755 196.45 396.934 196.271 396.934 196.05V194.919C396.934 194.698 396.755 194.519 396.534 194.519Z" fill="#E6E6E6"/>
<path d="M402.971 194.519H400.553C400.332 194.519 400.153 194.698 400.153 194.919V196.05C400.153 196.271 400.332 196.45 400.553 196.45H402.971C403.192 196.45 403.371 196.271 403.371 196.05V194.919C403.371 194.698 403.192 194.519 402.971 194.519Z" fill="#E6E6E6"/>
<path d="M409.409 194.519H406.99C406.769 194.519 406.59 194.698 406.59 194.919V196.05C406.59 196.271 406.769 196.45 406.99 196.45H409.409C409.63 196.45 409.809 196.271 409.809 196.05V194.919C409.809 194.698 409.63 194.519 409.409 194.519Z" fill="#E6E6E6"/>
<path d="M415.846 194.519H413.427C413.206 194.519 413.027 194.698 413.027 194.919V196.05C413.027 196.271 413.206 196.45 413.427 196.45H415.846C416.067 196.45 416.246 196.271 416.246 196.05V194.919C416.246 194.698 416.067 194.519 415.846 194.519Z" fill="#E6E6E6"/>
<path d="M422.283 194.519H419.864C419.644 194.519 419.464 194.698 419.464 194.919V196.05C419.464 196.271 419.644 196.45 419.864 196.45H422.283C422.504 196.45 422.683 196.271 422.683 196.05V194.919C422.683 194.698 422.504 194.519 422.283 194.519Z" fill="#E6E6E6"/>
<path d="M428.72 194.519H426.302C426.081 194.519 425.902 194.698 425.902 194.919V196.05C425.902 196.271 426.081 196.45 426.302 196.45H428.72C428.941 196.45 429.12 196.271 429.12 196.05V194.919C429.12 194.698 428.941 194.519 428.72 194.519Z" fill="#E6E6E6"/>
<path d="M385.591 198.382H360.642C360.421 198.382 360.242 198.561 360.242 198.782V199.913C360.242 200.134 360.421 200.313 360.642 200.313H385.591C385.812 200.313 385.991 200.134 385.991 199.913V198.782C385.991 198.561 385.812 198.382 385.591 198.382Z" fill="#E6E6E6"/>
<path d="M439.583 56.1384V118.023C439.582 122.167 437.936 126.142 435.006 129.072C432.076 132.003 428.102 133.649 423.959 133.65H346.517C343.468 133.651 340.486 132.76 337.937 131.087C335.388 129.414 333.383 127.032 332.17 124.235C331.764 123.31 331.454 122.346 331.245 121.358C332.891 121.995 334.641 122.32 336.406 122.317H413.848C417.667 122.312 421.327 120.792 424.027 118.092C426.727 115.391 428.247 111.73 428.252 107.911V46.0265C428.255 44.261 427.93 42.5104 427.293 40.8639C428.281 41.0733 429.245 41.3836 430.169 41.7899C432.966 43.003 435.348 45.0076 437.02 47.5569C438.693 50.1063 439.584 53.0892 439.583 56.1384Z" fill="#F2F2F2"/>
<path d="M150.67 302.354L142.989 307.111L120.36 279.291L131.696 272.271L150.67 302.354Z" fill="#FFB6B6"/>
<path d="M154.032 305.244L147.162 310.571L153.425 305.244L143.79 313.439L130.808 324.12C130.022 324.47 129.145 324.561 128.305 324.378C127.464 324.195 126.704 323.748 126.135 323.102C125.567 322.456 125.22 321.646 125.144 320.789C125.069 319.932 125.27 319.073 125.717 318.338L134.769 303.456L132.136 297.557L146.267 292.233L154.032 305.244Z" fill="#2F2E41"/>
<path d="M129.153 297.002L142.126 284.428C132.488 260.641 131.718 245.896 118.356 217.126C150.058 223.612 172.723 223.217 198.941 217.403C207.817 215.465 230.719 197.772 228.836 188.7C228.748 188.276 228.644 187.856 228.524 187.44C225.709 177.843 227.691 163.147 221.6 152.497C210.33 148.248 193.208 162.597 179.815 171.345C173.356 175.562 178.084 181.31 173.26 182.817L154.769 188.82L109.401 181.492C107.209 181.16 104.972 181.264 102.82 181.801C100.668 182.337 98.6439 183.294 96.8635 184.616C95.0831 185.938 93.582 187.6 92.4467 189.505C91.3114 191.41 90.5643 193.522 90.2486 195.717C90.1718 196.21 90.1162 196.705 90.0818 197.203C92.1692 208.76 94.3452 220.014 96.6879 230.696C97.4441 234.145 96.1675 240.755 99.0112 240.854C101.855 240.952 100.709 247.79 101.595 251.132C107.048 271.712 110.495 281.671 129.153 297.002Z" fill="#2F2E41"/>
<path d="M104.323 352.154L96.3207 347.976L108.982 314.431L120.792 320.597L104.323 352.154Z" fill="#FFB6B6"/>
<path d="M102.989 327.11L115.821 335.946C131.547 313.199 141.758 282.802 149.363 248.79C178.972 235.871 204.88 221.092 222.935 201.267C225.9 197.944 227.454 193.596 227.269 189.146C227.084 184.695 225.174 180.492 221.944 177.425C221.628 177.129 221.301 176.846 220.964 176.574C213.144 170.344 195.776 173.929 184.675 168.722L164.844 196.173L167.124 202.567L160.225 205.926L154.4 208.761L147.733 212.008L125.875 222.65C123.893 223.641 122.127 225.014 120.679 226.691C119.23 228.368 118.128 230.314 117.436 232.419C116.744 234.524 116.475 236.745 116.645 238.954C116.815 241.164 117.421 243.317 118.428 245.291C118.649 245.738 118.888 246.175 119.147 246.602L111.029 287.05C111.029 287.05 113.263 294.092 109.748 293.433C106.233 292.774 108.149 301.402 108.149 301.402L102.989 327.11Z" fill="#2F2E41"/>
<path d="M99.4768 370.641L102.681 363.015L95.3633 361.286L89.7153 360.147L73.7555 357.214C72.9928 356.816 72.3774 356.185 71.999 355.412C71.6206 354.639 71.499 353.766 71.652 352.919C71.8051 352.073 72.2247 351.297 72.8496 350.706C73.4746 350.115 74.2721 349.739 75.1258 349.633L92.4104 347.489L95.3986 341.763L108.346 349.536L99.4768 370.641Z" fill="#2F2E41"/>
<path d="M274.383 194.786L265.024 172.164L257.65 176.261L262.103 199.273C261.657 200.731 261.626 202.284 262.015 203.759C262.403 205.233 263.195 206.57 264.301 207.619C265.407 208.667 266.784 209.387 268.277 209.696C269.77 210.005 271.319 209.892 272.751 209.369C274.182 208.845 275.44 207.933 276.382 206.734C277.324 205.535 277.912 204.098 278.082 202.583C278.251 201.067 277.995 199.535 277.342 198.158C276.688 196.78 275.663 195.612 274.383 194.786V194.786Z" fill="#FFB6B6"/>
<path d="M117.333 15.9029L131.573 35.8152L137.827 30.1535L128.277 8.74928C128.381 7.22825 128.059 5.70833 127.346 4.36038C126.634 3.01243 125.56 1.8899 124.245 1.11899C122.93 0.348077 121.426 -0.0406546 119.902 -0.00350112C118.378 0.0336524 116.895 0.495217 115.619 1.3293C114.343 2.16339 113.325 3.33692 112.679 4.71798C112.033 6.09903 111.786 7.63285 111.964 9.147C112.142 10.6612 112.739 12.0956 113.687 13.2891C114.636 14.4826 115.898 15.3878 117.333 15.9029H117.333Z" fill="#FFB6B6"/>
<path d="M181.64 142.109C173.286 191.341 163.405 182.708 227.361 179.459L226.934 165.528L227.085 170.445L227.122 171.674L227.174 173.313L227.299 177.41V178.23L227.348 179.049L227.361 179.459C227.361 179.459 226.288 143.757 226.132 142.109C225.703 126.403 229.743 111.286 229.743 111.286L251.454 166.791C251.454 166.791 251.293 176.394 254.062 173.46C256.83 170.525 256.629 180.023 256.629 180.023C256.629 180.023 260.746 182.896 258.378 184.495C256.011 186.095 260.927 191.011 260.927 191.011L272.397 190.192C272.397 190.192 272.218 181.67 270.259 179.785C268.301 177.9 269.263 174.935 269.263 174.935C269.263 174.935 265.225 171.178 267.582 166.754C269.94 162.331 250.417 83.2023 250.417 83.2023C249.635 79.3953 247.815 75.8787 245.16 73.0413C242.504 70.2039 239.116 68.1561 235.369 67.1244L222.98 63.7128L220.78 54.983H203.336L200.297 60.7192L172.441 58.2608C172.441 58.2608 144.877 33.1776 146.223 31.2191C147.568 29.2605 143.295 24.6752 143.295 24.6752C143.295 24.6752 139.646 23.4806 141.705 22.8428C143.765 22.2051 139.872 20.7306 139.872 20.7306C139.872 20.7306 136.268 19.7832 137.968 18.5358C139.668 17.2884 132.294 16.469 132.294 16.469L122.727 24.2763L124.66 27.5557C124.66 27.5557 123.481 32.0211 125.02 30.391C126.559 28.7608 126.848 33.4917 126.848 33.4917C126.848 33.4917 127.634 38.6722 132.294 40.233C136.954 41.7938 140.487 56.622 140.487 56.622L179.814 89.3999C180.25 100.382 179.814 103.25 180.557 110.822L181.64 142.109Z" fill="#F9A826"/>
<path d="M4.2968e-06 370.35C-0.000761732 370.608 0.100925 370.855 0.282683 371.038C0.46444 371.221 0.711381 371.324 0.969194 371.325H587.025C587.284 371.325 587.532 371.222 587.714 371.039C587.897 370.857 588 370.608 588 370.35C588 370.091 587.897 369.843 587.714 369.66C587.532 369.477 587.284 369.375 587.025 369.375H0.97502C0.847359 369.374 0.720879 369.399 0.602791 369.448C0.484703 369.496 0.377319 369.567 0.286783 369.657C0.196247 369.747 0.124329 369.854 0.0751276 369.972C0.0259266 370.09 0.000404251 370.216 2.93004e-05 370.344L4.2968e-06 370.35Z" fill="#CCCCCC"/>
<path d="M362.577 77.7242H350.179C349.85 77.7242 349.535 77.5935 349.302 77.361C349.07 77.1284 348.939 76.8131 348.939 76.4842C348.939 76.1553 349.07 75.8399 349.302 75.6074C349.535 75.3748 349.85 75.2442 350.179 75.2442H362.577C362.906 75.2442 363.221 75.3748 363.453 75.6074C363.686 75.8399 363.816 76.1553 363.816 76.4842C363.816 76.8131 363.686 77.1284 363.453 77.361C363.221 77.5935 362.906 77.7242 362.577 77.7242V77.7242Z" fill="#F9A826"/>
<path d="M384.893 77.7242H372.495C372.332 77.7242 372.171 77.6921 372.021 77.6298C371.87 77.5675 371.734 77.4761 371.618 77.361C371.503 77.2458 371.412 77.1091 371.35 76.9587C371.287 76.8083 371.255 76.647 371.255 76.4842C371.255 76.3213 371.287 76.1601 371.35 76.0096C371.412 75.8592 371.503 75.7225 371.618 75.6074C371.734 75.4922 371.87 75.4009 372.021 75.3386C372.171 75.2762 372.332 75.2442 372.495 75.2442H384.893C385.056 75.2442 385.217 75.2762 385.368 75.3386C385.518 75.4009 385.655 75.4922 385.77 75.6074C385.885 75.7225 385.976 75.8592 386.038 76.0096C386.101 76.1601 386.133 76.3213 386.133 76.4842C386.133 76.647 386.101 76.8083 386.038 76.9587C385.976 77.1091 385.885 77.2458 385.77 77.361C385.655 77.4761 385.518 77.5675 385.368 77.6298C385.217 77.6921 385.056 77.7242 384.893 77.7242Z" fill="#F9A826"/>
<path d="M396.051 87.6441H383.653C383.49 87.6441 383.329 87.612 383.179 87.5497C383.028 87.4874 382.892 87.3961 382.777 87.2809C382.661 87.1658 382.57 87.0291 382.508 86.8786C382.446 86.7282 382.413 86.567 382.413 86.4041C382.413 86.2413 382.446 86.08 382.508 85.9296C382.57 85.7791 382.661 85.6425 382.777 85.5273C382.892 85.4122 383.028 85.3208 383.179 85.2585C383.329 85.1962 383.49 85.1641 383.653 85.1641H396.051C396.214 85.1641 396.375 85.1962 396.526 85.2585C396.676 85.3208 396.813 85.4122 396.928 85.5273C397.043 85.6425 397.134 85.7791 397.197 85.9296C397.259 86.08 397.291 86.2413 397.291 86.4041C397.291 86.567 397.259 86.7282 397.197 86.8786C397.134 87.0291 397.043 87.1658 396.928 87.2809C396.813 87.3961 396.676 87.4874 396.526 87.5497C396.375 87.612 396.214 87.6441 396.051 87.6441Z" fill="#F9A826"/>
<path d="M373.803 87.6441H350.179C349.85 87.6441 349.535 87.5135 349.302 87.2809C349.07 87.0484 348.939 86.733 348.939 86.4041C348.939 86.0753 349.07 85.7599 349.302 85.5273C349.535 85.2948 349.85 85.1641 350.179 85.1641H373.803C374.132 85.1641 374.447 85.2948 374.68 85.5273C374.912 85.7599 375.043 86.0753 375.043 86.4041C375.043 86.733 374.912 87.0484 374.68 87.2809C374.447 87.5135 374.132 87.6441 373.803 87.6441V87.6441Z" fill="#F9A826"/>
<path d="M418.436 77.7242H394.811C394.483 77.7242 394.167 77.5935 393.935 77.361C393.702 77.1284 393.572 76.8131 393.572 76.4842C393.572 76.1553 393.702 75.8399 393.935 75.6074C394.167 75.3748 394.483 75.2442 394.811 75.2442H418.436C418.599 75.2442 418.76 75.2762 418.91 75.3386C419.061 75.4009 419.198 75.4922 419.313 75.6074C419.428 75.7225 419.519 75.8592 419.581 76.0096C419.644 76.1601 419.676 76.3213 419.676 76.4842C419.676 76.647 419.644 76.8083 419.581 76.9587C419.519 77.1091 419.428 77.2458 419.313 77.361C419.198 77.4761 419.061 77.5675 418.91 77.6298C418.76 77.6921 418.599 77.7242 418.436 77.7242Z" fill="#F9A826"/>
<path d="M371.065 58.9392H347.44C347.277 58.9396 347.115 58.9078 346.965 58.8457C346.814 58.7836 346.677 58.6923 346.561 58.5771C346.446 58.4619 346.354 58.3251 346.292 58.1745C346.229 58.0238 346.197 57.8623 346.197 57.6992C346.197 57.5361 346.229 57.3746 346.292 57.2239C346.354 57.0733 346.446 56.9364 346.561 56.8212C346.677 56.7061 346.814 56.6148 346.965 56.5527C347.115 56.4905 347.277 56.4588 347.44 56.4592H371.065C371.393 56.4592 371.709 56.5898 371.941 56.8224C372.174 57.0549 372.304 57.3703 372.304 57.6992C372.304 58.0281 372.174 58.3435 371.941 58.576C371.709 58.8085 371.393 58.9392 371.065 58.9392V58.9392Z" fill="#F9A826"/>
<path d="M373.007 66.1837C372.776 66.1838 372.55 66.1116 372.362 65.9771C372.173 65.8427 372.032 65.6527 371.956 65.4338C371.881 65.2148 371.876 64.9779 371.943 64.7561C372.009 64.5342 372.142 64.3386 372.325 64.1966L378.374 59.4937C378.617 59.3047 378.819 59.0673 378.965 58.7965C379.112 58.5257 379.2 58.2274 379.226 57.9205C379.251 57.6136 379.212 57.3048 379.112 57.0137C379.012 56.7226 378.852 56.4554 378.643 56.2293L373.564 50.7303C373.465 50.6232 373.389 50.4976 373.338 50.3608C373.288 50.224 373.265 50.0786 373.27 49.9329C373.276 49.7872 373.31 49.644 373.372 49.5116C373.433 49.3792 373.519 49.2601 373.626 49.1611C373.733 49.0621 373.859 48.9852 373.996 48.9348C374.132 48.8843 374.278 48.8613 374.423 48.867C374.569 48.8728 374.712 48.9072 374.845 48.9682C374.977 49.0293 375.096 49.1158 375.195 49.2229L382.737 57.3886C382.841 57.5015 382.921 57.6349 382.971 57.7803C383.021 57.9257 383.041 58.0799 383.028 58.2332C383.016 58.3865 382.971 58.5355 382.898 58.6707C382.825 58.806 382.725 58.9246 382.603 59.019L373.688 65.95C373.493 66.1016 373.254 66.1839 373.007 66.1837Z" fill="#F9A826"/>
<path d="M346.245 66.1837C346.476 66.1838 346.702 66.1116 346.89 65.9771C347.078 65.8427 347.22 65.6527 347.295 65.4338C347.37 65.2148 347.375 64.9779 347.309 64.7561C347.243 64.5342 347.109 64.3386 346.927 64.1966L340.877 59.4937C340.634 59.3047 340.433 59.0673 340.287 58.7965C340.14 58.5257 340.051 58.2274 340.026 57.9205C340.001 57.6136 340.039 57.3048 340.14 57.0137C340.24 56.7226 340.4 56.4554 340.609 56.2293L345.687 50.7303C345.786 50.6232 345.863 50.4976 345.914 50.3608C345.964 50.224 345.987 50.0786 345.981 49.9329C345.976 49.7872 345.941 49.644 345.88 49.5116C345.819 49.3792 345.733 49.2601 345.625 49.1611C345.518 49.0621 345.393 48.9852 345.256 48.9348C345.119 48.8843 344.974 48.8613 344.828 48.867C344.683 48.8728 344.539 48.9072 344.407 48.9682C344.275 49.0293 344.156 49.1158 344.057 49.2229L336.515 57.3886C336.41 57.5015 336.33 57.6349 336.28 57.7803C336.23 57.9257 336.211 58.0799 336.223 58.2332C336.236 58.3865 336.28 58.5355 336.353 58.6707C336.427 58.806 336.527 58.9246 336.648 59.019L345.564 65.95C345.758 66.1016 345.998 66.1839 346.245 66.1837V66.1837Z" fill="#F9A826"/>
<path d="M383.278 108.909H359.653C359.324 108.909 359.009 108.778 358.776 108.546C358.544 108.313 358.413 107.998 358.413 107.669C358.413 107.34 358.544 107.025 358.776 106.792C359.009 106.56 359.324 106.429 359.653 106.429H383.278C383.606 106.429 383.922 106.56 384.154 106.792C384.387 107.025 384.517 107.34 384.517 107.669C384.517 107.998 384.387 108.313 384.154 108.546C383.922 108.778 383.606 108.909 383.278 108.909V108.909Z" fill="#F9A826"/>
<path d="M387.441 115.043C387.209 115.043 386.983 114.971 386.795 114.837C386.607 114.702 386.465 114.512 386.39 114.293C386.315 114.074 386.31 113.837 386.376 113.616C386.442 113.394 386.576 113.198 386.759 113.056L392.808 108.353C393.051 108.164 393.252 107.927 393.399 107.656C393.545 107.385 393.634 107.087 393.659 106.78C393.684 106.473 393.646 106.164 393.545 105.873C393.445 105.582 393.285 105.315 393.077 105.089L387.998 99.5897C387.899 99.4826 387.822 99.3571 387.772 99.2203C387.721 99.0835 387.698 98.9381 387.704 98.7924C387.71 98.6467 387.744 98.5035 387.805 98.3711C387.866 98.2387 387.953 98.1196 388.06 98.0206C388.167 97.9216 388.292 97.8447 388.429 97.7942C388.566 97.7438 388.711 97.7208 388.857 97.7265C389.003 97.7323 389.146 97.7666 389.278 97.8277C389.411 97.8888 389.53 97.9753 389.629 98.0824L397.171 106.248C397.275 106.361 397.355 106.494 397.405 106.64C397.455 106.785 397.474 106.939 397.462 107.093C397.449 107.246 397.405 107.395 397.332 107.53C397.259 107.665 397.158 107.784 397.037 107.878L388.122 114.81C387.927 114.961 387.687 115.043 387.441 115.043Z" fill="#F9A826"/>
<path d="M346.245 115.043C346.476 115.043 346.702 114.971 346.89 114.837C347.078 114.702 347.22 114.512 347.295 114.293C347.37 114.074 347.375 113.837 347.309 113.616C347.243 113.394 347.109 113.198 346.927 113.056L340.877 108.353C340.634 108.164 340.433 107.927 340.287 107.656C340.14 107.385 340.051 107.087 340.026 106.78C340.001 106.473 340.039 106.164 340.14 105.873C340.24 105.582 340.4 105.315 340.609 105.089L345.687 99.5897C345.887 99.3735 345.993 99.0866 345.981 98.7924C345.97 98.4981 345.842 98.2205 345.625 98.0206C345.409 97.8207 345.122 97.7149 344.828 97.7265C344.534 97.7381 344.256 97.8661 344.057 98.0824L336.515 106.248C336.41 106.361 336.33 106.494 336.28 106.64C336.23 106.785 336.211 106.939 336.223 107.093C336.236 107.246 336.28 107.395 336.353 107.53C336.427 107.665 336.527 107.784 336.648 107.878L345.564 114.81C345.758 114.961 345.998 115.043 346.245 115.043V115.043Z" fill="#F9A826"/>
<path d="M348.353 111.569L353.319 100.207C353.452 99.9073 353.698 99.6722 354.003 99.5533C354.309 99.4344 354.649 99.4414 354.949 99.5728C355.25 99.7041 355.486 99.9491 355.606 100.254C355.726 100.559 355.721 100.899 355.591 101.2L350.625 112.562C350.56 112.712 350.467 112.848 350.349 112.962C350.232 113.075 350.093 113.165 349.941 113.225C349.79 113.284 349.627 113.314 349.464 113.311C349.301 113.308 349.14 113.273 348.99 113.207C348.84 113.142 348.705 113.047 348.592 112.93C348.479 112.812 348.39 112.673 348.331 112.52C348.272 112.368 348.243 112.206 348.247 112.042C348.251 111.879 348.287 111.718 348.353 111.569V111.569Z" fill="#F9A826"/>
<path d="M213.135 52.4447C201.511 52.4447 192.087 43.0193 192.087 31.3925C192.087 19.7657 201.511 10.3404 213.135 10.3404C224.76 10.3404 234.184 19.7657 234.184 31.3925C234.184 43.0193 224.76 52.4447 213.135 52.4447Z" fill="#FFB6B6"/>
<path d="M197.676 48.6898C196.517 48.8876 195.156 46.0768 193.855 43.3393C191.132 37.6088 189.401 33.9659 189.27 28.8166C189.157 24.4278 190.376 25.5797 191.562 15.8225C191.953 12.6043 197.451 12.6105 198.569 11.0823C200.459 8.50106 197.56 7.4365 202.262 5.88586C211.069 2.98145 215.051 7.49334 220.645 7.88204C220.786 7.89188 223.559 10.6039 225.107 10.7442C227.82 10.9899 231.734 10.5672 233.489 6.43282C235.13 2.56711 236.217 13.8635 234.75 15.2615C233.505 16.4484 231.357 19.4276 231.303 19.6443C231.241 19.8895 236.409 14.1628 237.272 16.5227C237.893 18.2212 235.939 26.9594 234.36 27.2879C233.039 27.5624 229.81 23.2095 230.538 24.9948C232.228 29.1351 222.068 31.777 209.904 23.4661C209.473 23.1713 209.88 23.6414 208.376 27.2879C206.478 31.8869 206.05 32.136 206.083 33.4027C206.155 36.1448 208.213 36.9521 207.611 38.7532C207.124 40.2119 205.219 41.3412 203.79 41.0463C202.177 40.7133 201.901 38.7177 200.733 38.7532C199.733 38.7836 198.546 40.2901 198.44 41.8106C198.218 45.0139 202.959 45.8949 203.79 50.2185C204.259 52.6587 198.742 48.5082 197.676 48.6898V48.6898Z" fill="#2F2E41"/>
</g>
<defs>
<clipPath id="clip0_2_237">
<rect width="588" height="372" fill="white"/>
</clipPath>
</defs>
</svg>
